<svg width="26" height="25" viewBox="0 0 26 25" fill="none" xmlns="http://www.w3.org/2000/svg">
<path d="M1.36523 23.9229C2.22949 24.7725 3.69434 24.7578 4.48535 23.9521L12.8496 15.5879L21.2139 23.9521C22.0342 24.7725 23.4844 24.7725 24.3193 23.9229C25.1689 23.0586 25.1836 21.6377 24.3486 20.8027L15.999 12.4385L24.3486 4.08887C25.1836 3.25391 25.1836 1.81836 24.3193 0.96875C23.4697 0.119141 22.0342 0.119141 21.2139 0.939453L12.8496 9.30371L4.48535 0.939453C3.69434 0.133789 2.21484 0.104492 1.36523 0.96875C0.515625 1.81836 0.544922 3.2832 1.33594 4.08887L9.71484 12.4385L1.33594 20.8174C0.544922 21.6084 0.515625 23.0879 1.36523 23.9229Z" fill="white"/>
</svg>
