<svg width="36" height="21" viewBox="0 0 36 21" fill="none" xmlns="http://www.w3.org/2000/svg">
<path d="M17.8984 20.4219C17.2344 20.4219 16.668 20.168 16.1602 19.6602L1.25781 4.42578C0.828125 3.99609 0.613281 3.46875 0.613281 2.84375C0.613281 1.57422 1.58984 0.558594 2.85938 0.558594C3.48438 0.558594 4.05078 0.8125 4.5 1.24219L17.8984 14.9922L31.2969 1.24219C31.7266 0.832031 32.293 0.558594 32.918 0.558594C34.207 0.558594 35.1836 1.57422 35.1836 2.84375C35.1836 3.46875 34.9688 3.99609 34.5391 4.42578L19.6367 19.6602C19.1289 20.1875 18.5625 20.4219 17.8984 20.4219Z" fill="white"/>
</svg>
